<svg width="83" height="24" viewBox="0 0 83 24" fill="none" xmlns="http://www.w3.org/2000/svg">
<path d="M9.99935 3.66699C8.905 3.66699 7.82137 3.88254 6.81032 4.30133C5.79927 4.72012 4.88061 5.33395 4.10679 6.10777C2.54399 7.67057 1.66602 9.79019 1.66602 12.0003C1.66602 15.6837 4.05768 18.8087 7.36602 19.917C7.78268 19.9837 7.91602 19.7253 7.91602 19.5003V18.092C5.60768 18.592 5.11602 16.9753 5.11602 16.9753C4.73268 16.0087 4.19102 15.7503 4.19102 15.7503C3.43268 15.2337 4.24935 15.2503 4.24935 15.2503C5.08268 15.3087 5.52435 16.1087 5.52435 16.1087C6.24935 17.3753 7.47435 17.0003 7.94935 16.8003C8.02435 16.2587 8.24102 15.892 8.47435 15.6837C6.62435 15.4753 4.68268 14.7587 4.68268 11.5837C4.68268 10.6587 4.99935 9.91699 5.54102 9.32533C5.45768 9.11699 5.16602 8.25033 5.62435 7.12533C5.62435 7.12533 6.32435 6.90033 7.91602 7.97533C8.57435 7.79199 9.29102 7.70033 9.99935 7.70033C10.7077 7.70033 11.4243 7.79199 12.0827 7.97533C13.6743 6.90033 14.3743 7.12533 14.3743 7.12533C14.8327 8.25033 14.541 9.11699 14.4577 9.32533C14.9993 9.91699 15.316 10.6587 15.316 11.5837C15.316 14.767 13.366 15.467 11.5077 15.6753C11.8077 15.9337 12.0827 16.442 12.0827 17.217V19.5003C12.0827 19.7253 12.216 19.992 12.641 19.917C15.9493 18.8003 18.3327 15.6837 18.3327 12.0003C18.3327 10.906 18.1171 9.82234 17.6983 8.8113C17.2796 7.80025 16.6657 6.88159 15.8919 6.10777C15.1181 5.33395 14.1994 4.72012 13.1884 4.30133C12.1773 3.88254 11.0937 3.66699 9.99935 3.66699Z" fill="white"/>
<path d="M37.248 10.08C36.96 9.52533 36.56 9.10933 36.048 8.832C35.536 8.544 34.944 8.4 34.272 8.4C33.536 8.4 32.88 8.56533 32.304 8.896C31.728 9.22667 31.2747 9.696 30.944 10.304C30.624 10.912 30.464 11.616 30.464 12.416C30.464 13.216 30.624 13.9253 30.944 14.544C31.2747 15.152 31.728 15.6213 32.304 15.952C32.88 16.2827 33.536 16.448 34.272 16.448C35.264 16.448 36.0693 16.1707 36.688 15.616C37.3067 15.0613 37.6853 14.3093 37.824 13.36H33.648V11.904H39.776V13.328C39.6587 14.192 39.3493 14.9867 38.848 15.712C38.3573 16.4373 37.712 17.0187 36.912 17.456C36.1227 17.8827 35.2427 18.096 34.272 18.096C33.2267 18.096 32.272 17.856 31.408 17.376C30.544 16.8853 29.856 16.208 29.344 15.344C28.8427 14.48 28.592 13.504 28.592 12.416C28.592 11.328 28.8427 10.352 29.344 9.488C29.856 8.624 30.544 7.952 31.408 7.472C32.2827 6.98133 33.2373 6.736 34.272 6.736C35.456 6.736 36.5067 7.02933 37.424 7.616C38.352 8.192 39.024 9.01333 39.44 10.08H37.248ZM42.503 8.016C42.1723 8.016 41.895 7.904 41.671 7.68C41.447 7.456 41.335 7.17867 41.335 6.848C41.335 6.51733 41.447 6.24 41.671 6.016C41.895 5.792 42.1723 5.68 42.503 5.68C42.823 5.68 43.095 5.792 43.319 6.016C43.543 6.24 43.655 6.51733 43.655 6.848C43.655 7.17867 43.543 7.456 43.319 7.68C43.095 7.904 42.823 8.016 42.503 8.016ZM43.399 9.184V18H41.575V9.184H43.399ZM47.9217 10.672V15.552C47.9217 15.8827 47.9964 16.1227 48.1457 16.272C48.3057 16.4107 48.5724 16.48 48.9457 16.48H50.0657V18H48.6257C47.8044 18 47.1751 17.808 46.7377 17.424C46.3004 17.04 46.0817 16.416 46.0817 15.552V10.672H45.0417V9.184H46.0817V6.992H47.9217V9.184H50.0657V10.672H47.9217ZM56.3069 9.04C56.9789 9.04 57.5762 9.184 58.0989 9.472C58.6322 9.76 59.0482 10.1867 59.3469 10.752C59.6562 11.3173 59.8109 12 59.8109 12.8V18H58.0029V13.072C58.0029 12.2827 57.8055 11.68 57.4109 11.264C57.0162 10.8373 56.4775 10.624 55.7949 10.624C55.1122 10.624 54.5682 10.8373 54.1629 11.264C53.7682 11.68 53.5709 12.2827 53.5709 13.072V18H51.7469V6.16H53.5709V10.208C53.8802 9.83467 54.2695 9.54667 54.7389 9.344C55.2189 9.14133 55.7415 9.04 56.3069 9.04ZM70.1215 9.184V18H68.2975V16.96C68.0095 17.3227 67.6308 17.6107 67.1615 17.824C66.7028 18.0267 66.2122 18.128 65.6895 18.128C64.9962 18.128 64.3722 17.984 63.8175 17.696C63.2735 17.408 62.8415 16.9813 62.5215 16.416C62.2122 15.8507 62.0575 15.168 62.0575 14.368V9.184H63.8655V14.096C63.8655 14.8853 64.0628 15.4933 64.4575 15.92C64.8522 16.336 65.3908 16.544 66.0735 16.544C66.7562 16.544 67.2948 16.336 67.6895 15.92C68.0948 15.4933 68.2975 14.8853 68.2975 14.096V9.184H70.1215ZM74.3521 10.496C74.6615 10.0693 75.0828 9.72267 75.6161 9.456C76.1601 9.17867 76.7628 9.04 77.4241 9.04C78.2028 9.04 78.9068 9.22667 79.5361 9.6C80.1655 9.97333 80.6615 10.5067 81.0241 11.2C81.3868 11.8827 81.5681 12.6667 81.5681 13.552C81.5681 14.4373 81.3868 15.232 81.0241 15.936C80.6615 16.6293 80.1601 17.1733 79.5201 17.568C78.8908 17.952 78.1921 18.144 77.4241 18.144C76.7415 18.144 76.1335 18.0107 75.6001 17.744C75.0775 17.4773 74.6615 17.136 74.3521 16.72V18H72.5281V6.16H74.3521V10.496ZM79.7121 13.552C79.7121 12.944 79.5841 12.4213 79.3281 11.984C79.0828 11.536 78.7521 11.2 78.3361 10.976C77.9308 10.7413 77.4935 10.624 77.0241 10.624C76.5655 10.624 76.1281 10.7413 75.7121 10.976C75.3068 11.2107 74.9761 11.552 74.7201 12C74.4748 12.448 74.3521 12.976 74.3521 13.584C74.3521 14.192 74.4748 14.7253 74.7201 15.184C74.9761 15.632 75.3068 15.9733 75.7121 16.208C76.1281 16.4427 76.5655 16.56 77.0241 16.56C77.4935 16.56 77.9308 16.4427 78.3361 16.208C78.7521 15.9627 79.0828 15.6107 79.3281 15.152C79.5841 14.6933 79.7121 14.16 79.7121 13.552Z" fill="white"/>
</svg>
