<svg width="200" height="42" viewBox="0 0 200 42" fill="none" xmlns="http://www.w3.org/2000/svg">
<path d="M35 15.75V12.25C35 10.325 33.425 8.75 31.5 8.75H26.25C26.25 5.845 23.905 3.5 21 3.5C18.095 3.5 15.75 5.845 15.75 8.75H10.5C8.575 8.75 7 10.325 7 12.25V15.75C4.095 15.75 1.75 18.095 1.75 21C1.75 23.905 4.095 26.25 7 26.25V33.25C7 35.175 8.575 36.75 10.5 36.75H31.5C33.425 36.75 35 35.175 35 33.25V26.25C37.905 26.25 40.25 23.905 40.25 21C40.25 18.095 37.905 15.75 35 15.75ZM13.125 20.125C13.125 18.6725 14.2975 17.5 15.75 17.5C17.2025 17.5 18.375 18.6725 18.375 20.125C18.375 21.5775 17.2025 22.75 15.75 22.75C14.2975 22.75 13.125 21.5775 13.125 20.125ZM26.25 29.75H15.75C14.7875 29.75 14 28.9625 14 28C14 27.0375 14.7875 26.25 15.75 26.25H26.25C27.2125 26.25 28 27.0375 28 28C28 28.9625 27.2125 29.75 26.25 29.75ZM26.25 22.75C24.7975 22.75 23.625 21.5775 23.625 20.125C23.625 18.6725 24.7975 17.5 26.25 17.5C27.7025 17.5 28.875 18.6725 28.875 20.125C28.875 21.5775 27.7025 22.75 26.25 22.75Z" fill="#6B5CE2"/>
<path d="M55.206 16.936C55.206 17.342 55.409 17.661 55.815 17.893C56.2403 18.125 56.8977 18.3763 57.787 18.647C58.8503 18.995 59.7203 19.3333 60.397 19.662C61.093 19.9907 61.6923 20.503 62.195 21.199C62.717 21.895 62.978 22.8037 62.978 23.925C62.978 27.521 60.6387 29.319 55.96 29.319C55.1867 29.319 54.2393 29.2513 53.118 29.116C52.016 28.9807 51.0107 28.8067 50.102 28.594C50.1407 28.188 50.218 27.5983 50.334 26.825C50.4693 26.0323 50.595 25.4427 50.711 25.056C51.3877 25.1527 52.4027 25.2687 53.756 25.404C55.1287 25.5393 56.163 25.607 56.859 25.607C57.265 25.607 57.5067 25.578 57.584 25.52C57.7 25.4427 57.787 25.317 57.845 25.143C57.9223 24.9497 57.961 24.7853 57.961 24.65C57.961 24.2633 57.7773 23.9733 57.41 23.78C57.0427 23.5673 56.4143 23.316 55.525 23.026C54.4617 22.6973 53.582 22.359 52.886 22.011C52.19 21.663 51.581 21.1217 51.059 20.387C50.537 19.6523 50.276 18.6857 50.276 17.487C50.276 16.6363 50.4693 15.805 50.856 14.993C51.2427 14.1617 51.639 13.601 52.045 13.311C52.3543 13.0983 52.9923 12.8953 53.959 12.702C54.9257 12.5087 55.8343 12.412 56.685 12.412C58.8503 12.412 60.6193 12.615 61.992 13.021C61.9727 13.4077 61.905 13.9393 61.789 14.616C61.6923 15.2927 61.586 15.9113 61.47 16.472L60.803 16.443C58.2897 16.269 56.685 16.182 55.989 16.182C55.699 16.182 55.5347 16.1917 55.496 16.211C55.4187 16.2497 55.351 16.3367 55.293 16.472C55.235 16.6073 55.206 16.762 55.206 16.936ZM85.9648 16.588C86.2741 17.052 86.4288 18.85 86.4288 21.982V29H81.4698V22.475V20.909C81.4698 20.1937 81.4021 19.7683 81.2668 19.633C81.1121 19.4783 80.7835 19.401 80.2808 19.401L79.9328 19.43C79.3335 19.4687 78.7631 19.604 78.2218 19.836C78.2411 20.242 78.2508 20.9573 78.2508 21.982V29H73.2918V22.475V20.735C73.2918 20.1357 73.2241 19.7683 73.0888 19.633C72.9341 19.4783 72.6055 19.401 72.1028 19.401L71.7548 19.43C71.2135 19.4493 70.6528 19.575 70.0728 19.807V29H65.1138V15.66H69.1448L69.6668 17.835C70.3048 16.9843 71.0395 16.3657 71.8708 15.979C72.7021 15.573 73.5431 15.37 74.3938 15.37C75.1091 15.37 75.7858 15.4763 76.4238 15.689C77.0811 15.9017 77.5355 16.2013 77.7868 16.588C77.9028 16.762 77.9995 17.081 78.0768 17.545C78.6955 16.791 79.4011 16.24 80.1938 15.892C80.9865 15.544 81.7791 15.37 82.5718 15.37C83.2871 15.37 83.9638 15.4763 84.6018 15.689C85.2591 15.9017 85.7135 16.2013 85.9648 16.588ZM96.6789 29L96.2149 27.173C95.3256 28.623 94.0883 29.348 92.5029 29.348C91.2076 29.348 90.1443 28.9903 89.3129 28.275C88.5009 27.5403 88.0949 26.5157 88.0949 25.201C88.0949 24.389 88.3269 23.6833 88.7909 23.084C89.2743 22.4653 89.9316 22.0303 90.7629 21.779C91.8456 21.4697 93.5179 21.2957 95.7799 21.257C95.7799 19.981 95.7219 19.3043 95.6059 19.227C95.5093 19.1497 95.1999 19.111 94.6779 19.111C94.3493 19.111 93.8949 19.1303 93.3149 19.169C92.3869 19.2077 91.1303 19.314 89.5449 19.488C89.3903 18.444 89.2743 17.3227 89.1969 16.124C90.2216 15.9113 91.2946 15.7373 92.4159 15.602C93.5373 15.4473 94.5426 15.37 95.4319 15.37C96.9786 15.37 98.1386 15.631 98.9119 16.153C99.6853 16.6557 100.188 17.3227 100.42 18.154C100.652 18.9853 100.758 20.039 100.739 21.315L100.71 25.578L100.797 29H96.6789ZM94.1849 26.1C94.6876 26.1 95.2193 26.0033 95.7799 25.81V23.664H95.5479C94.1173 23.664 93.3246 23.7413 93.1699 23.896C93.0733 23.9927 92.9959 24.1377 92.9379 24.331C92.8993 24.5243 92.8799 24.708 92.8799 24.882C92.8799 25.346 92.9863 25.665 93.1989 25.839C93.4116 26.013 93.7403 26.1 94.1849 26.1ZM111.243 15.37C111.494 15.37 111.755 15.399 112.026 15.457C112.316 15.515 112.529 15.5827 112.664 15.66C112.664 16.0853 112.616 16.791 112.519 17.777C112.422 18.7437 112.335 19.43 112.258 19.836C112.065 19.8167 111.707 19.807 111.185 19.807C109.967 19.807 108.884 19.8747 107.937 20.01V29H102.978V15.66H107.125L107.705 17.806H107.734C108.295 17.0713 108.894 16.4817 109.532 16.037C110.17 15.5923 110.74 15.37 111.243 15.37ZM120.114 23.519C120.114 23.867 120.124 24.2343 120.143 24.621C120.163 24.9883 120.221 25.2203 120.317 25.317C120.453 25.4523 120.926 25.52 121.738 25.52L122.724 25.491C122.898 26.419 122.985 27.492 122.985 28.71C122.618 28.8453 122.077 28.971 121.361 29.087C120.665 29.203 119.998 29.261 119.36 29.261C118.026 29.261 116.992 28.971 116.257 28.391C115.542 27.7917 115.184 26.8733 115.184 25.636V18.502H113.009V15.863L115.184 15.66L116.489 12.47L120.114 12.267V15.66H123.188V18.502H120.114V23.519Z" fill="white"/>
<path d="M129.688 16.936C129.688 17.342 129.891 17.661 130.297 17.893C130.723 18.125 131.38 18.3763 132.269 18.647C133.333 18.995 134.203 19.3333 134.879 19.662C135.575 19.9907 136.175 20.503 136.677 21.199C137.199 21.895 137.46 22.8037 137.46 23.925C137.46 27.521 135.121 29.319 130.442 29.319C129.669 29.319 128.722 29.2513 127.6 29.116C126.498 28.9807 125.493 28.8067 124.584 28.594C124.623 28.188 124.7 27.5983 124.816 26.825C124.952 26.0323 125.077 25.4427 125.193 25.056C125.87 25.1527 126.885 25.2687 128.238 25.404C129.611 25.5393 130.645 25.607 131.341 25.607C131.747 25.607 131.989 25.578 132.066 25.52C132.182 25.4427 132.269 25.317 132.327 25.143C132.405 24.9497 132.443 24.7853 132.443 24.65C132.443 24.2633 132.26 23.9733 131.892 23.78C131.525 23.5673 130.897 23.316 130.007 23.026C128.944 22.6973 128.064 22.359 127.368 22.011C126.672 21.663 126.063 21.1217 125.541 20.387C125.019 19.6523 124.758 18.6857 124.758 17.487C124.758 16.6363 124.952 15.805 125.338 14.993C125.725 14.1617 126.121 13.601 126.527 13.311C126.837 13.0983 127.475 12.8953 128.441 12.702C129.408 12.5087 130.317 12.412 131.167 12.412C133.333 12.412 135.102 12.615 136.474 13.021C136.455 13.4077 136.387 13.9393 136.271 14.616C136.175 15.2927 136.068 15.9113 135.952 16.472L135.285 16.443C132.772 16.269 131.167 16.182 130.471 16.182C130.181 16.182 130.017 16.1917 129.978 16.211C129.901 16.2497 129.833 16.3367 129.775 16.472C129.717 16.6073 129.688 16.762 129.688 16.936ZM144.866 23.519C144.866 23.867 144.876 24.2343 144.895 24.621C144.915 24.9883 144.973 25.2203 145.069 25.317C145.205 25.4523 145.678 25.52 146.49 25.52L147.476 25.491C147.65 26.419 147.737 27.492 147.737 28.71C147.37 28.8453 146.829 28.971 146.113 29.087C145.417 29.203 144.75 29.261 144.112 29.261C142.778 29.261 141.744 28.971 141.009 28.391C140.294 27.7917 139.936 26.8733 139.936 25.636V18.502H137.761V15.863L139.936 15.66L141.241 12.47L144.866 12.267V15.66H147.94V18.502H144.866V23.519ZM162.763 15.66V29H158.732L158.181 26.767C156.789 28.449 155.127 29.29 153.193 29.29C152.497 29.29 151.84 29.1933 151.221 29C150.622 28.8067 150.168 28.5263 149.858 28.159C149.684 27.9463 149.549 27.4147 149.452 26.564C149.375 25.7133 149.336 24.418 149.336 22.678V15.66H154.295V22.62C154.295 23.0067 154.305 23.461 154.324 23.983C154.344 24.505 154.402 24.8337 154.498 24.969C154.634 25.1623 155.02 25.259 155.658 25.259L156.122 25.23C156.664 25.2107 157.224 25.085 157.804 24.853V15.66H162.763ZM178.423 11.397V29H174.334L173.928 26.767C173.541 27.521 172.971 28.1203 172.217 28.565C171.463 29.0097 170.612 29.232 169.665 29.232C168.157 29.232 166.949 28.6907 166.04 27.608C165.151 26.5253 164.706 24.9013 164.706 22.736C164.706 21.0927 164.899 19.7393 165.286 18.676C165.673 17.6127 166.127 16.849 166.649 16.385C166.978 16.095 167.645 15.8533 168.65 15.66C169.675 15.4667 170.583 15.37 171.376 15.37C172.072 15.37 172.787 15.4377 173.522 15.573C173.464 14.645 173.435 14.1327 173.435 14.036V11.6L178.423 11.397ZM171.84 25.346C172.362 25.346 172.903 25.259 173.464 25.085V18.792C172.903 18.7147 172.285 18.676 171.608 18.676C171.028 18.676 170.661 18.7243 170.506 18.821C170.293 18.9757 170.119 19.4203 169.984 20.155C169.868 20.8703 169.81 21.6243 169.81 22.417C169.81 23.5963 169.984 24.3793 170.332 24.766C170.699 25.1527 171.202 25.346 171.84 25.346ZM194.606 15.66L191.126 26.825C190.45 28.971 189.841 30.5273 189.299 31.494C188.758 32.48 188.217 33.1663 187.675 33.553C187.366 33.7657 186.873 33.93 186.196 34.046C185.539 34.162 184.824 34.22 184.05 34.22C182.89 34.22 181.962 34.1137 181.266 33.901C181.247 33.437 181.266 32.8667 181.324 32.19C181.382 31.5327 181.46 30.972 181.556 30.508C182.368 30.5467 183.161 30.566 183.934 30.566C184.514 30.566 184.949 30.5563 185.239 30.537C185.529 29.9763 185.8 29.3867 186.051 28.768L184.05 28.652L179.584 15.66H184.833L187.153 24.998L187.182 25.549H187.269L189.357 15.66H194.606Z" fill="#6A5BE2"/>
</svg>
