<svg width="436" height="20" viewBox="0 0 436 20" fill="none" xmlns="http://www.w3.org/2000/svg">
<line y1="9.5" x2="193.5" y2="9.5" stroke="white" stroke-opacity="0.16"/>
<path d="M215.002 15.098C214.097 15.098 213.271 14.888 212.524 14.468C211.777 14.0387 211.185 13.446 210.746 12.69C210.317 11.9247 210.102 11.066 210.102 10.114C210.102 9.162 210.317 8.308 210.746 7.552C211.185 6.78667 211.777 6.194 212.524 5.774C213.271 5.34467 214.097 5.13 215.002 5.13C215.917 5.13 216.747 5.34467 217.494 5.774C218.241 6.194 218.829 6.782 219.258 7.538C219.687 8.294 219.902 9.15267 219.902 10.114C219.902 11.0753 219.687 11.934 219.258 12.69C218.829 13.446 218.241 14.0387 217.494 14.468C216.747 14.888 215.917 15.098 215.002 15.098ZM215.002 13.992C215.683 13.992 216.295 13.8333 216.836 13.516C217.387 13.1987 217.816 12.746 218.124 12.158C218.441 11.57 218.6 10.8887 218.6 10.114C218.6 9.33 218.441 8.64867 218.124 8.07C217.816 7.482 217.391 7.02933 216.85 6.712C216.309 6.39467 215.693 6.236 215.002 6.236C214.311 6.236 213.695 6.39467 213.154 6.712C212.613 7.02933 212.183 7.482 211.866 8.07C211.558 8.64867 211.404 9.33 211.404 10.114C211.404 10.8887 211.558 11.57 211.866 12.158C212.183 12.746 212.613 13.1987 213.154 13.516C213.705 13.8333 214.321 13.992 215.002 13.992ZM222.858 8.574C223.082 8.13533 223.399 7.79467 223.81 7.552C224.23 7.30933 224.739 7.188 225.336 7.188V8.504H225C223.572 8.504 222.858 9.27867 222.858 10.828V15H221.584V7.328H222.858V8.574Z" fill="white" fill-opacity="0.72"/>
<line x1="242.5" y1="9.5" x2="436" y2="9.5" stroke="white" stroke-opacity="0.16"/>
</svg>
