<svg width="19" height="17" viewBox="0 0 19 17" fill="none" xmlns="http://www.w3.org/2000/svg">
<path d="M2.33 4.9775C1.55038 5.89765 0.969846 6.96934 0.625 8.125C1.70167 11.74 5.05 14.375 9.01333 14.375C9.84083 14.375 10.6408 14.26 11.3992 14.0458M4.20333 3.315C5.63054 2.37322 7.3034 1.8724 9.01333 1.875C12.9767 1.875 16.3242 4.51 17.4008 8.12333C16.8108 10.0978 15.5442 11.8013 13.8233 12.935M4.20333 3.315L1.51333 0.625M4.20333 3.315L7.245 6.35667M13.8233 12.935L16.5133 15.625M13.8233 12.935L10.7817 9.89333C11.0138 9.66117 11.198 9.38555 11.3236 9.08221C11.4493 8.77887 11.514 8.45375 11.514 8.12542C11.514 7.79708 11.4493 7.47197 11.3236 7.16863C11.198 6.86529 11.0138 6.58967 10.7817 6.3575C10.5495 6.12533 10.2739 5.94117 9.97054 5.81552C9.6672 5.68987 9.34208 5.6252 9.01375 5.6252C8.68542 5.6252 8.3603 5.68987 8.05696 5.81552C7.75362 5.94117 7.478 6.12533 7.24583 6.3575M10.7808 9.8925L7.24667 6.35833" stroke="white" stroke-opacity="0.72" stroke-width="1.25" stroke-linecap="round" stroke-linejoin="round"/>
</svg>
