<svg width="21" height="21" viewBox="0 0 21 21" fill="none" xmlns="http://www.w3.org/2000/svg">
<path d="M11.8125 11.8125C11.9373 11.8125 12.0415 11.7708 12.1249 11.6874C12.2083 11.604 12.25 11.4998 12.25 11.375V9.1875H14.4375C14.5623 9.1875 14.6665 9.14579 14.7499 9.06238C14.8333 8.97896 14.875 8.87484 14.875 8.75C14.875 8.62517 14.8333 8.52104 14.7499 8.43763C14.6665 8.35421 14.5623 8.3125 14.4375 8.3125H12.25V6.125C12.25 6.00075 12.2083 5.89663 12.1249 5.81263C12.0415 5.72863 11.9373 5.68692 11.8125 5.6875C11.6877 5.68809 11.5835 5.72979 11.5001 5.81263C11.4167 5.89546 11.375 5.99959 11.375 6.125V8.3125H9.1875C9.06325 8.3125 8.95913 8.35421 8.87513 8.43763C8.79113 8.52104 8.74942 8.62517 8.75 8.75C8.75059 8.87484 8.79229 8.97896 8.87513 9.06238C8.95796 9.14579 9.06209 9.1875 9.1875 9.1875H11.375V11.375C11.375 11.4998 11.4167 11.604 11.5001 11.6874C11.5835 11.7708 11.6877 11.8125 11.8125 11.8125ZM7.1015 14.875C6.69842 14.875 6.36213 14.7403 6.09263 14.4708C5.82313 14.2013 5.68809 13.865 5.6875 13.4619V4.03813C5.6875 3.63563 5.82254 3.29934 6.09263 3.02925C6.36271 2.75917 6.699 2.62442 7.1015 2.625H16.5244C16.9269 2.625 17.2632 2.75975 17.5333 3.02925C17.8033 3.29875 17.9381 3.63504 17.9375 4.03813V13.4619C17.9375 13.8644 17.8028 14.2004 17.5333 14.4699C17.2638 14.7394 16.9272 14.8744 16.5235 14.875H7.1015ZM7.1015 14H16.5244C16.6585 14 16.7819 13.944 16.8945 13.832C17.0071 13.72 17.0631 13.5966 17.0625 13.4619V4.03813C17.0625 3.90396 17.0065 3.78059 16.8945 3.668C16.7825 3.55542 16.6588 3.49942 16.5235 3.5H7.1015C6.96675 3.5 6.84309 3.556 6.7305 3.668C6.61792 3.78 6.56192 3.90338 6.5625 4.03813V13.4619C6.5625 13.596 6.6185 13.7194 6.7305 13.832C6.8425 13.9446 6.96588 14.0006 7.10063 14M4.47563 17.5C4.07313 17.5 3.73684 17.3653 3.46675 17.0958C3.19667 16.8263 3.06192 16.49 3.0625 16.0869V6.22563C3.0625 6.10138 3.10421 5.99754 3.18763 5.91413C3.27104 5.83071 3.37517 5.789 3.5 5.789C3.62484 5.789 3.72896 5.83071 3.81238 5.91413C3.89579 5.99754 3.9375 6.10167 3.9375 6.2265V16.0869C3.9375 16.221 3.9935 16.3444 4.1055 16.457C4.2175 16.5696 4.34088 16.6256 4.47563 16.625H14.3369C14.4611 16.625 14.565 16.6667 14.6484 16.7501C14.7318 16.8335 14.7738 16.9377 14.7744 17.0625C14.775 17.1873 14.733 17.2915 14.6484 17.3749C14.5638 17.4583 14.46 17.5 14.3369 17.5H4.47563Z" fill="#6A5BE2"/>
</svg>
