<svg width="23" height="23" viewBox="0 0 23 23" fill="none" xmlns="http://www.w3.org/2000/svg">
<path d="M5.95833 16.7856H9.4965V11.9202C9.4965 11.701 9.57093 11.5173 9.71979 11.3691C9.86801 11.2203 10.0517 11.1458 10.2708 11.1458H13.1458C13.365 11.1458 13.549 11.2203 13.6978 11.3691C13.8461 11.5173 13.9202 11.701 13.9202 11.9202V16.7856H17.4583V8.45579C17.4583 8.3574 17.4369 8.26796 17.3941 8.18746C17.3513 8.10696 17.2929 8.03668 17.2188 7.97662L12.0591 4.08771C11.9607 4.0021 11.8438 3.95929 11.7083 3.95929C11.5729 3.95929 11.4563 4.0021 11.3585 4.08771L6.19792 7.97662C6.12444 8.03796 6.06599 8.10824 6.02254 8.18746C5.9791 8.26668 5.95769 8.35612 5.95833 8.45579V16.7856ZM5 16.7856V8.45579C5 8.21046 5.05494 7.97822 5.16483 7.75908C5.27472 7.53994 5.42614 7.35946 5.61908 7.21762L10.7797 3.30954C11.05 3.10318 11.3585 3 11.7055 3C12.0524 3 12.3629 3.10318 12.637 3.30954L17.7976 7.21667C17.9912 7.3585 18.1426 7.53931 18.2518 7.75908C18.3617 7.97822 18.4167 8.21046 18.4167 8.45579V16.7856C18.4167 17.0425 18.3212 17.2664 18.1301 17.4574C17.9391 17.6484 17.7152 17.744 17.4583 17.744H13.7362C13.5164 17.744 13.3324 17.6698 13.1842 17.5216C13.0359 17.3728 12.9618 17.1888 12.9618 16.9696V12.1051H10.4548V16.9696C10.4548 17.1894 10.3807 17.3734 10.2325 17.5216C10.0843 17.6698 9.9006 17.744 9.68146 17.744H5.95833C5.7015 17.744 5.47757 17.6484 5.28654 17.4574C5.09551 17.2664 5 17.0425 5 16.7856Z" fill="#6A5BE2"/>
</svg>
