<svg width="19" height="19" viewBox="0 0 19 19" fill="none" xmlns="http://www.w3.org/2000/svg">
<path d="M15.4867 5.54167C15.5292 5.29905 15.5181 5.05007 15.4541 4.8122C15.3902 4.57433 15.275 4.35333 15.1165 4.16473C14.9581 3.97613 14.7603 3.82448 14.5371 3.72045C14.3138 3.61641 14.0705 3.5625 13.8242 3.5625H5.17599C4.92968 3.5625 4.68635 3.61641 4.46309 3.72045C4.23982 3.82448 4.04204 3.97613 3.88361 4.16473C3.72518 4.35333 3.60996 4.57433 3.54602 4.8122C3.48208 5.05007 3.47098 5.29905 3.51349 5.54167M13.8542 3.5625C13.8764 3.35667 13.8883 3.25454 13.8883 3.16983C13.8891 2.77851 13.745 2.40072 13.4838 2.10937C13.2226 1.81801 12.8627 1.63372 12.4736 1.59204C12.3897 1.58333 12.2867 1.58333 12.0809 1.58333H6.91924C6.71341 1.58333 6.6097 1.58333 6.52578 1.59204C6.13668 1.63372 5.7768 1.81801 5.51555 2.10937C5.25431 2.40072 5.11022 2.77851 5.11108 3.16983C5.11108 3.25454 5.12216 3.35746 5.14512 3.5625" stroke="#6A5BE2"/>
<path d="M11.8751 14.25H7.12506M16.7786 13.2945C16.5016 15.2578 16.363 16.2402 15.6529 16.8285C14.9428 17.4167 13.8954 17.4167 11.7998 17.4167H7.20027C5.10552 17.4167 4.05735 17.4167 3.34722 16.8285C2.6371 16.2402 2.49856 15.2586 2.22147 13.2945L1.88739 10.9195C1.53352 8.41462 1.35697 7.163 2.10747 6.35154C2.85797 5.54166 4.19431 5.54166 6.86539 5.54166H12.1347C14.8058 5.54166 16.1421 5.54166 16.8926 6.35233C17.4856 6.99279 17.4998 7.90875 17.3051 9.5" stroke="#6A5BE2" stroke-linecap="round"/>
</svg>
