<svg width="86" height="24" viewBox="0 0 86 24" fill="none" xmlns="http://www.w3.org/2000/svg">
<path d="M18.1726 10.3682H17.5013V10.3337H10.0013V13.667H14.7109C14.0238 15.6074 12.1776 17.0003 10.0013 17.0003C7.24005 17.0003 5.0013 14.7616 5.0013 12.0003C5.0013 9.23908 7.24005 7.00033 10.0013 7.00033C11.2759 7.00033 12.4355 7.48116 13.3184 8.26658L15.6755 5.90949C14.1871 4.52241 12.1963 3.66699 10.0013 3.66699C5.39922 3.66699 1.66797 7.39824 1.66797 12.0003C1.66797 16.6024 5.39922 20.3337 10.0013 20.3337C14.6034 20.3337 18.3346 16.6024 18.3346 12.0003C18.3346 11.4416 18.2771 10.8962 18.1726 10.3682Z" fill="#FFC107"/>
<path d="M2.62793 8.12158L5.36585 10.1295C6.10668 8.29533 7.90085 7.00033 10.0004 7.00033C11.275 7.00033 12.4346 7.48116 13.3175 8.26658L15.6746 5.90949C14.1863 4.52241 12.1954 3.66699 10.0004 3.66699C6.7996 3.66699 4.02376 5.47408 2.62793 8.12158Z" fill="#FF3D00"/>
<path d="M10.0008 20.3336C12.1533 20.3336 14.1091 19.5099 15.5879 18.1703L13.0087 15.9878C12.1439 16.6454 11.0872 17.0011 10.0008 17.0003C7.83328 17.0003 5.99286 15.6182 5.29953 13.6895L2.58203 15.7832C3.9612 18.482 6.76203 20.3336 10.0008 20.3336Z" fill="#4CAF50"/>
<path d="M18.1712 10.3678H17.5V10.3333H10V13.6666H14.7096C14.3809 14.5901 13.7889 15.3971 13.0067 15.9878L13.0079 15.987L15.5871 18.1695C15.4046 18.3353 18.3333 16.1666 18.3333 11.9999C18.3333 11.4412 18.2758 10.8958 18.1712 10.3678Z" fill="#1976D2"/>
<path d="M37.248 10.08C36.96 9.52533 36.56 9.10933 36.048 8.832C35.536 8.544 34.944 8.4 34.272 8.4C33.536 8.4 32.88 8.56533 32.304 8.896C31.728 9.22667 31.2747 9.696 30.944 10.304C30.624 10.912 30.464 11.616 30.464 12.416C30.464 13.216 30.624 13.9253 30.944 14.544C31.2747 15.152 31.728 15.6213 32.304 15.952C32.88 16.2827 33.536 16.448 34.272 16.448C35.264 16.448 36.0693 16.1707 36.688 15.616C37.3067 15.0613 37.6853 14.3093 37.824 13.36H33.648V11.904H39.776V13.328C39.6587 14.192 39.3493 14.9867 38.848 15.712C38.3573 16.4373 37.712 17.0187 36.912 17.456C36.1227 17.8827 35.2427 18.096 34.272 18.096C33.2267 18.096 32.272 17.856 31.408 17.376C30.544 16.8853 29.856 16.208 29.344 15.344C28.8427 14.48 28.592 13.504 28.592 12.416C28.592 11.328 28.8427 10.352 29.344 9.488C29.856 8.624 30.544 7.952 31.408 7.472C32.2827 6.98133 33.2373 6.736 34.272 6.736C35.456 6.736 36.5067 7.02933 37.424 7.616C38.352 8.192 39.024 9.01333 39.44 10.08H37.248ZM45.399 18.144C44.567 18.144 43.815 17.9573 43.143 17.584C42.471 17.2 41.943 16.6667 41.559 15.984C41.175 15.2907 40.983 14.4907 40.983 13.584C40.983 12.688 41.1803 11.8933 41.575 11.2C41.9697 10.5067 42.5083 9.97333 43.191 9.6C43.8737 9.22667 44.6363 9.04 45.479 9.04C46.3217 9.04 47.0843 9.22667 47.767 9.6C48.4497 9.97333 48.9883 10.5067 49.383 11.2C49.7777 11.8933 49.975 12.688 49.975 13.584C49.975 14.48 49.7723 15.2747 49.367 15.968C48.9617 16.6613 48.407 17.2 47.703 17.584C47.0097 17.9573 46.2417 18.144 45.399 18.144ZM45.399 16.56C45.8683 16.56 46.3057 16.448 46.711 16.224C47.127 16 47.463 15.664 47.719 15.216C47.975 14.768 48.103 14.224 48.103 13.584C48.103 12.944 47.9803 12.4053 47.735 11.968C47.4897 11.52 47.1643 11.184 46.759 10.96C46.3537 10.736 45.9163 10.624 45.447 10.624C44.9777 10.624 44.5403 10.736 44.135 10.96C43.7403 11.184 43.4257 11.52 43.191 11.968C42.9563 12.4053 42.839 12.944 42.839 13.584C42.839 14.5333 43.079 15.2693 43.559 15.792C44.0497 16.304 44.663 16.56 45.399 16.56ZM55.6021 18.144C54.7701 18.144 54.0181 17.9573 53.3461 17.584C52.6741 17.2 52.1461 16.6667 51.7621 15.984C51.3781 15.2907 51.1861 14.4907 51.1861 13.584C51.1861 12.688 51.3835 11.8933 51.7781 11.2C52.1728 10.5067 52.7115 9.97333 53.3941 9.6C54.0768 9.22667 54.8395 9.04 55.6821 9.04C56.5248 9.04 57.2875 9.22667 57.9701 9.6C58.6528 9.97333 59.1915 10.5067 59.5861 11.2C59.9808 11.8933 60.1781 12.688 60.1781 13.584C60.1781 14.48 59.9755 15.2747 59.5701 15.968C59.1648 16.6613 58.6101 17.2 57.9061 17.584C57.2128 17.9573 56.4448 18.144 55.6021 18.144ZM55.6021 16.56C56.0715 16.56 56.5088 16.448 56.9141 16.224C57.3301 16 57.6661 15.664 57.9221 15.216C58.1781 14.768 58.3061 14.224 58.3061 13.584C58.3061 12.944 58.1835 12.4053 57.9381 11.968C57.6928 11.52 57.3675 11.184 56.9621 10.96C56.5568 10.736 56.1195 10.624 55.6501 10.624C55.1808 10.624 54.7435 10.736 54.3381 10.96C53.9435 11.184 53.6288 11.52 53.3941 11.968C53.1595 12.4053 53.0421 12.944 53.0421 13.584C53.0421 14.5333 53.2821 15.2693 53.7621 15.792C54.2528 16.304 54.8661 16.56 55.6021 16.56ZM65.5332 9.04C66.2159 9.04 66.8186 9.17867 67.3412 9.456C67.8746 9.72267 68.2906 10.0587 68.5892 10.464V9.184H70.4292V18.144C70.4292 18.9547 70.2586 19.6747 69.9172 20.304C69.5759 20.944 69.0799 21.4453 68.4292 21.808C67.7892 22.1707 67.0212 22.352 66.1252 22.352C64.9306 22.352 63.9386 22.0693 63.1492 21.504C62.3599 20.9493 61.9119 20.192 61.8052 19.232H63.6132C63.7519 19.6907 64.0452 20.0587 64.4932 20.336C64.9519 20.624 65.4959 20.768 66.1252 20.768C66.8612 20.768 67.4532 20.544 67.9012 20.096C68.3599 19.648 68.5892 18.9973 68.5892 18.144V16.672C68.2799 17.088 67.8586 17.44 67.3252 17.728C66.8026 18.0053 66.2052 18.144 65.5332 18.144C64.7652 18.144 64.0612 17.952 63.4212 17.568C62.7919 17.1733 62.2906 16.6293 61.9172 15.936C61.5546 15.232 61.3732 14.4373 61.3732 13.552C61.3732 12.6667 61.5546 11.8827 61.9172 11.2C62.2906 10.5173 62.7919 9.98933 63.4212 9.616C64.0612 9.232 64.7652 9.04 65.5332 9.04ZM68.5892 13.584C68.5892 12.976 68.4612 12.448 68.2052 12C67.9599 11.552 67.6346 11.2107 67.2292 10.976C66.8239 10.7413 66.3866 10.624 65.9172 10.624C65.4479 10.624 65.0106 10.7413 64.6052 10.976C64.1999 11.2 63.8692 11.536 63.6132 11.984C63.3679 12.4213 63.2452 12.944 63.2452 13.552C63.2452 14.16 63.3679 14.6933 63.6132 15.152C63.8692 15.6107 64.1999 15.9627 64.6052 16.208C65.0212 16.4427 65.4586 16.56 65.9172 16.56C66.3866 16.56 66.8239 16.4427 67.2292 16.208C67.6346 15.9733 67.9599 15.632 68.2052 15.184C68.4612 14.7253 68.5892 14.192 68.5892 13.584ZM74.649 6.16V18H72.825V6.16H74.649ZM85.1237 13.376C85.1237 13.7067 85.1024 14.0053 85.0597 14.272H78.3237C78.3771 14.976 78.6384 15.5413 79.1077 15.968C79.5771 16.3947 80.1531 16.608 80.8357 16.608C81.8171 16.608 82.5104 16.1973 82.9157 15.376H84.8837C84.6171 16.1867 84.1317 16.8533 83.4277 17.376C82.7344 17.888 81.8704 18.144 80.8357 18.144C79.9931 18.144 79.2357 17.9573 78.5637 17.584C77.9024 17.2 77.3797 16.6667 76.9957 15.984C76.6224 15.2907 76.4357 14.4907 76.4357 13.584C76.4357 12.6773 76.6171 11.8827 76.9797 11.2C77.3531 10.5067 77.8704 9.97333 78.5317 9.6C79.2037 9.22667 79.9717 9.04 80.8357 9.04C81.6677 9.04 82.4091 9.22133 83.0597 9.584C83.7104 9.94667 84.2171 10.4587 84.5797 11.12C84.9424 11.7707 85.1237 12.5227 85.1237 13.376ZM83.2197 12.8C83.2091 12.128 82.9691 11.5893 82.4997 11.184C82.0304 10.7787 81.4491 10.576 80.7557 10.576C80.1264 10.576 79.5877 10.7787 79.1397 11.184C78.6917 11.5787 78.4251 12.1173 78.3397 12.8H83.2197Z" fill="white"/>
</svg>
