<svg width="42" height="42" viewBox="0 0 42 42" fill="none" xmlns="http://www.w3.org/2000/svg">
<path d="M35 15.75V12.25C35 10.325 33.425 8.75 31.5 8.75H26.25C26.25 5.845 23.905 3.5 21 3.5C18.095 3.5 15.75 5.845 15.75 8.75H10.5C8.575 8.75 7 10.325 7 12.25V15.75C4.095 15.75 1.75 18.095 1.75 21C1.75 23.905 4.095 26.25 7 26.25V33.25C7 35.175 8.575 36.75 10.5 36.75H31.5C33.425 36.75 35 35.175 35 33.25V26.25C37.905 26.25 40.25 23.905 40.25 21C40.25 18.095 37.905 15.75 35 15.75ZM13.125 20.125C13.125 18.6725 14.2975 17.5 15.75 17.5C17.2025 17.5 18.375 18.6725 18.375 20.125C18.375 21.5775 17.2025 22.75 15.75 22.75C14.2975 22.75 13.125 21.5775 13.125 20.125ZM26.25 29.75H15.75C14.7875 29.75 14 28.9625 14 28C14 27.0375 14.7875 26.25 15.75 26.25H26.25C27.2125 26.25 28 27.0375 28 28C28 28.9625 27.2125 29.75 26.25 29.75ZM26.25 22.75C24.7975 22.75 23.625 21.5775 23.625 20.125C23.625 18.6725 24.7975 17.5 26.25 17.5C27.7025 17.5 28.875 18.6725 28.875 20.125C28.875 21.5775 27.7025 22.75 26.25 22.75Z" fill="#6B5CE2"/>
</svg>
