<svg width="17" height="20" viewBox="0 0 17 20" fill="none" xmlns="http://www.w3.org/2000/svg">
<path d="M15.1111 9.32381C14.6389 9.44762 14.1667 9.52381 13.6944 9.52381C12.3176 9.52129 10.9978 8.96862 10.0242 7.98683C9.05057 7.00504 8.5025 5.67417 8.5 4.28572C8.5 2.88572 9.04778 1.61905 9.91667 0.676195C9.74527 0.464329 9.52916 0.293691 9.28409 0.176714C9.03901 0.0597363 8.77114 -0.000632861 8.5 5.00256e-06C7.46111 5.00256e-06 6.61111 0.857148 6.61111 1.90477V2.18096C3.80611 3.01905 1.88889 5.61905 1.88889 8.57143V14.2857L0 16.1905V17.1429H17V16.1905L15.1111 14.2857V9.32381ZM8.5 20C9.54833 20 10.3889 19.1524 10.3889 18.0952H6.61111C6.61111 18.6004 6.81012 19.0849 7.16435 19.4421C7.51859 19.7993 7.99904 20 8.5 20Z" fill="white"/>
<rect x="10" y="1" width="7" height="7" rx="3.5" fill="#6A5BE2"/>
</svg>
