<svg width="27" height="27" viewBox="0 0 27 27" fill="none" xmlns="http://www.w3.org/2000/svg">
<path fill-rule="evenodd" clip-rule="evenodd" d="M13.3333 1.46498e-10C15.0843 -8.2075e-06 16.8181 0.344862 18.4358 1.01492C20.0535 1.68498 21.5233 2.6671 22.7614 3.90522C23.9995 5.14333 24.9817 6.61319 25.6517 8.23086C26.3218 9.84854 26.6667 11.5824 26.6667 13.3333C26.6667 20.6971 20.6971 26.6667 13.3333 26.6667C5.96956 26.6667 0 20.6971 0 13.3333C0 5.96956 5.96956 1.46498e-10 13.3333 1.46498e-10ZM14.6667 14.6667H12C8.69906 14.6667 5.86513 16.6659 4.64281 19.5197C6.57681 22.2316 9.74856 24 13.3333 24C16.9181 24 20.0898 22.2316 22.0239 19.5195C20.8016 16.6659 17.9676 14.6667 14.6667 14.6667ZM13.3333 4C11.1242 4 9.33331 5.79088 9.33331 8C9.33331 10.2091 11.1242 12 13.3333 12C15.5424 12 17.3333 10.2091 17.3333 8C17.3333 5.79088 15.5425 4 13.3333 4Z" fill="#6A5BE2"/>
</svg>
