<svg width="145" height="23" viewBox="0 0 145 23" fill="none" xmlns="http://www.w3.org/2000/svg">
<path d="M5.104 5.539C5.104 5.945 5.307 6.264 5.713 6.496C6.13834 6.728 6.79567 6.97933 7.685 7.25C8.74834 7.598 9.61834 7.93633 10.295 8.265C10.991 8.59367 11.5903 9.106 12.093 9.802C12.615 10.498 12.876 11.4067 12.876 12.528C12.876 16.124 10.5367 17.922 5.858 17.922C5.08467 17.922 4.13734 17.8543 3.016 17.719C1.914 17.5837 0.908669 17.4097 2.69711e-06 17.197C0.0386694 16.791 0.116003 16.2013 0.232003 15.428C0.367336 14.6353 0.493003 14.0457 0.609003 13.659C1.28567 13.7557 2.30067 13.8717 3.654 14.007C5.02667 14.1423 6.061 14.21 6.757 14.21C7.163 14.21 7.40467 14.181 7.482 14.123C7.598 14.0457 7.685 13.92 7.743 13.746C7.82034 13.5527 7.859 13.3883 7.859 13.253C7.859 12.8663 7.67534 12.5763 7.308 12.383C6.94067 12.1703 6.31234 11.919 5.423 11.629C4.35967 11.3003 3.48 10.962 2.784 10.614C2.088 10.266 1.479 9.72467 0.957003 8.99C0.435003 8.25533 0.174003 7.28867 0.174003 6.09C0.174003 5.23933 0.367336 4.408 0.754003 3.596C1.14067 2.76467 1.537 2.204 1.943 1.914C2.25234 1.70133 2.89034 1.49833 3.857 1.305C4.82367 1.11167 5.73234 1.015 6.583 1.015C8.74834 1.015 10.5173 1.218 11.89 1.624C11.8707 2.01067 11.803 2.54233 11.687 3.219C11.5903 3.89567 11.484 4.51433 11.368 5.075L10.701 5.046C8.18767 4.872 6.583 4.785 5.887 4.785C5.597 4.785 5.43267 4.79467 5.394 4.814C5.31667 4.85267 5.249 4.93967 5.191 5.075C5.133 5.21033 5.104 5.365 5.104 5.539ZM35.8628 5.191C36.1721 5.655 36.3268 7.453 36.3268 10.585V17.603H31.3678V11.078V9.512C31.3678 8.79667 31.3001 8.37133 31.1648 8.236C31.0101 8.08133 30.6815 8.004 30.1788 8.004L29.8308 8.033C29.2315 8.07167 28.6611 8.207 28.1198 8.439C28.1391 8.845 28.1488 9.56033 28.1488 10.585V17.603H23.1898V11.078V9.338C23.1898 8.73867 23.1221 8.37133 22.9868 8.236C22.8321 8.08133 22.5035 8.004 22.0008 8.004L21.6528 8.033C21.1115 8.05233 20.5508 8.178 19.9708 8.41V17.603H15.0118V4.263H19.0428L19.5648 6.438C20.2028 5.58733 20.9375 4.96867 21.7688 4.582C22.6001 4.176 23.4411 3.973 24.2918 3.973C25.0071 3.973 25.6838 4.07933 26.3218 4.292C26.9791 4.50467 27.4335 4.80433 27.6848 5.191C27.8008 5.365 27.8975 5.684 27.9748 6.148C28.5935 5.394 29.2991 4.843 30.0918 4.495C30.8845 4.147 31.6771 3.973 32.4698 3.973C33.1851 3.973 33.8618 4.07933 34.4998 4.292C35.1571 4.50467 35.6115 4.80433 35.8628 5.191ZM46.5769 17.603L46.1129 15.776C45.2236 17.226 43.9863 17.951 42.4009 17.951C41.1056 17.951 40.0423 17.5933 39.2109 16.878C38.3989 16.1433 37.9929 15.1187 37.9929 13.804C37.9929 12.992 38.2249 12.2863 38.6889 11.687C39.1723 11.0683 39.8296 10.6333 40.6609 10.382C41.7436 10.0727 43.4159 9.89867 45.6779 9.86C45.6779 8.584 45.6199 7.90733 45.5039 7.83C45.4073 7.75267 45.0979 7.714 44.5759 7.714C44.2473 7.714 43.7929 7.73333 43.2129 7.772C42.2849 7.81067 41.0283 7.917 39.4429 8.091C39.2883 7.047 39.1723 5.92567 39.0949 4.727C40.1196 4.51433 41.1926 4.34033 42.3139 4.205C43.4353 4.05033 44.4406 3.973 45.3299 3.973C46.8766 3.973 48.0366 4.234 48.8099 4.756C49.5833 5.25867 50.0859 5.92567 50.3179 6.757C50.5499 7.58833 50.6563 8.642 50.6369 9.918L50.6079 14.181L50.6949 17.603H46.5769ZM44.0829 14.703C44.5856 14.703 45.1173 14.6063 45.6779 14.413V12.267H45.4459C44.0153 12.267 43.2226 12.3443 43.0679 12.499C42.9713 12.5957 42.8939 12.7407 42.8359 12.934C42.7973 13.1273 42.7779 13.311 42.7779 13.485C42.7779 13.949 42.8843 14.268 43.0969 14.442C43.3096 14.616 43.6383 14.703 44.0829 14.703ZM61.1411 3.973C61.3924 3.973 61.6534 4.002 61.9241 4.06C62.2141 4.118 62.4267 4.18567 62.5621 4.263C62.5621 4.68833 62.5137 5.394 62.4171 6.38C62.3204 7.34667 62.2334 8.033 62.1561 8.439C61.9627 8.41967 61.6051 8.41 61.0831 8.41C59.8651 8.41 58.7824 8.47767 57.8351 8.613V17.603H52.8761V4.263H57.0231L57.6031 6.409H57.6321C58.1927 5.67433 58.7921 5.08467 59.4301 4.64C60.0681 4.19533 60.6384 3.973 61.1411 3.973ZM70.0123 12.122C70.0123 12.47 70.022 12.8373 70.0413 13.224C70.0607 13.5913 70.1187 13.8233 70.2153 13.92C70.3507 14.0553 70.8243 14.123 71.6363 14.123L72.6223 14.094C72.7963 15.022 72.8833 16.095 72.8833 17.313C72.516 17.4483 71.9747 17.574 71.2593 17.69C70.5633 17.806 69.8963 17.864 69.2583 17.864C67.9243 17.864 66.89 17.574 66.1553 16.994C65.44 16.3947 65.0823 15.4763 65.0823 14.239V7.105H62.9073V4.466L65.0823 4.263L66.3873 1.073L70.0123 0.87V4.263H73.0863V7.105H70.0123V12.122Z" fill="white"/>
<path d="M79.5864 5.539C79.5864 5.945 79.7894 6.264 80.1954 6.496C80.6208 6.728 81.2781 6.97933 82.1674 7.25C83.2308 7.598 84.1008 7.93633 84.7774 8.265C85.4734 8.59367 86.0728 9.106 86.5754 9.802C87.0974 10.498 87.3584 11.4067 87.3584 12.528C87.3584 16.124 85.0191 17.922 80.3404 17.922C79.5671 17.922 78.6198 17.8543 77.4984 17.719C76.3964 17.5837 75.3911 17.4097 74.4824 17.197C74.5211 16.791 74.5984 16.2013 74.7144 15.428C74.8498 14.6353 74.9754 14.0457 75.0914 13.659C75.7681 13.7557 76.7831 13.8717 78.1364 14.007C79.5091 14.1423 80.5434 14.21 81.2394 14.21C81.6454 14.21 81.8871 14.181 81.9644 14.123C82.0804 14.0457 82.1674 13.92 82.2254 13.746C82.3028 13.5527 82.3414 13.3883 82.3414 13.253C82.3414 12.8663 82.1578 12.5763 81.7904 12.383C81.4231 12.1703 80.7948 11.919 79.9054 11.629C78.8421 11.3003 77.9624 10.962 77.2664 10.614C76.5704 10.266 75.9614 9.72467 75.4394 8.99C74.9174 8.25533 74.6564 7.28867 74.6564 6.09C74.6564 5.23933 74.8498 4.408 75.2364 3.596C75.6231 2.76467 76.0194 2.204 76.4254 1.914C76.7348 1.70133 77.3728 1.49833 78.3394 1.305C79.3061 1.11167 80.2148 1.015 81.0654 1.015C83.2308 1.015 84.9998 1.218 86.3724 1.624C86.3531 2.01067 86.2854 2.54233 86.1694 3.219C86.0728 3.89567 85.9664 4.51433 85.8504 5.075L85.1834 5.046C82.6701 4.872 81.0654 4.785 80.3694 4.785C80.0794 4.785 79.9151 4.79467 79.8764 4.814C79.7991 4.85267 79.7314 4.93967 79.6734 5.075C79.6154 5.21033 79.5864 5.365 79.5864 5.539ZM94.7643 12.122C94.7643 12.47 94.774 12.8373 94.7933 13.224C94.8126 13.5913 94.8706 13.8233 94.9673 13.92C95.1026 14.0553 95.5763 14.123 96.3883 14.123L97.3743 14.094C97.5483 15.022 97.6353 16.095 97.6353 17.313C97.268 17.4483 96.7266 17.574 96.0113 17.69C95.3153 17.806 94.6483 17.864 94.0103 17.864C92.6763 17.864 91.642 17.574 90.9073 16.994C90.192 16.3947 89.8343 15.4763 89.8343 14.239V7.105H87.6593V4.466L89.8343 4.263L91.1393 1.073L94.7643 0.87V4.263H97.8383V7.105H94.7643V12.122ZM112.661 4.263V17.603H108.63L108.079 15.37C106.687 17.052 105.025 17.893 103.091 17.893C102.395 17.893 101.738 17.7963 101.119 17.603C100.52 17.4097 100.066 17.1293 99.7564 16.762C99.5824 16.5493 99.447 16.0177 99.3504 15.167C99.273 14.3163 99.2344 13.021 99.2344 11.281V4.263H104.193V11.223C104.193 11.6097 104.203 12.064 104.222 12.586C104.242 13.108 104.3 13.4367 104.396 13.572C104.532 13.7653 104.918 13.862 105.556 13.862L106.02 13.833C106.562 13.8137 107.122 13.688 107.702 13.456V4.263H112.661ZM128.321 -8.9407e-07V17.603H124.232L123.826 15.37C123.439 16.124 122.869 16.7233 122.115 17.168C121.361 17.6127 120.51 17.835 119.563 17.835C118.055 17.835 116.847 17.2937 115.938 16.211C115.049 15.1283 114.604 13.5043 114.604 11.339C114.604 9.69567 114.797 8.34233 115.184 7.279C115.571 6.21567 116.025 5.452 116.547 4.988C116.876 4.698 117.543 4.45633 118.548 4.263C119.573 4.06967 120.481 3.973 121.274 3.973C121.97 3.973 122.685 4.04067 123.42 4.176C123.362 3.248 123.333 2.73567 123.333 2.639V0.203L128.321 -8.9407e-07ZM121.738 13.949C122.26 13.949 122.801 13.862 123.362 13.688V7.395C122.801 7.31767 122.183 7.279 121.506 7.279C120.926 7.279 120.559 7.32733 120.404 7.424C120.191 7.57867 120.017 8.02333 119.882 8.758C119.766 9.47333 119.708 10.2273 119.708 11.02C119.708 12.1993 119.882 12.9823 120.23 13.369C120.597 13.7557 121.1 13.949 121.738 13.949ZM144.504 4.263L141.024 15.428C140.348 17.574 139.739 19.1303 139.197 20.097C138.656 21.083 138.115 21.7693 137.573 22.156C137.264 22.3687 136.771 22.533 136.094 22.649C135.437 22.765 134.722 22.823 133.948 22.823C132.788 22.823 131.86 22.7167 131.164 22.504C131.145 22.04 131.164 21.4697 131.222 20.793C131.28 20.1357 131.358 19.575 131.454 19.111C132.266 19.1497 133.059 19.169 133.832 19.169C134.412 19.169 134.847 19.1593 135.137 19.14C135.427 18.5793 135.698 17.9897 135.949 17.371L133.948 17.255L129.482 4.263H134.731L137.051 13.601L137.08 14.152H137.167L139.255 4.263H144.504Z" fill="#6A5BE2"/>
</svg>
